<?xml version="1.0" encoding="iso-8859-1"?>
<!-- Generator: Adobe Illustrator 19.0.0, SVG Export Plug-In . SVG Version: 6.00 Build 0)  -->
<svg version="1.1" id="Capa_1" xmlns="http://www.w3.org/2000/svg" xmlns:xlink="http://www.w3.org/1999/xlink" x="0px" y="0px"
	 viewBox="0 0 512.001 512.001" style="enable-background:new 0 0 512.001 512.001;" xml:space="preserve">
<g>
	<g>
		<path d="M511.03,349.749c0-19.506-12.509-36.136-29.924-42.313V152.629l30.896-12.349L255.669,37.825L0,140.28l121.018,48.496
			v71.201c0,21.949,15.388,41.731,43.329,55.702c24.645,12.323,57.079,19.109,91.329,19.109s66.685-6.786,91.329-19.109
			c27.941-13.971,43.329-33.752,43.329-55.702V188.91l60.846-24.32v142.847c-17.415,6.176-29.924,22.807-29.924,42.313
			c0,17.844,10.467,33.287,25.584,40.516l-24.816,74.448l28.389,9.463l15.73-47.189l15.73,47.189l28.389-9.463l-24.816-74.448
			C500.561,383.035,511.03,367.593,511.03,349.749z M360.411,259.976c0,21.188-44.79,44.886-104.734,44.886
			c-59.944,0-104.734-23.698-104.734-44.886v-59.209l104.727,41.968l104.742-41.866V259.976z M255.684,210.504L80.445,140.28
			l175.239-70.224l175.691,70.224L255.684,210.504z M466.143,364.711c-8.25,0-14.962-6.712-14.962-14.962
			c0-8.25,6.712-14.962,14.962-14.962c8.25,0,14.962,6.712,14.962,14.962C481.105,357.999,474.393,364.711,466.143,364.711z"/>
	</g>
</g>
<g>
</g>
<g>
</g>
<g>
</g>
<g>
</g>
<g>
</g>
<g>
</g>
<g>
</g>
<g>
</g>
<g>
</g>
<g>
</g>
<g>
</g>
<g>
</g>
<g>
</g>
<g>
</g>
<g>
</g>
</svg>
